# xmcd CD database file
#
# Track frame offsets:
#	150
#	11542
#	31644
#	46079
#	61250
#	77569
#	91218
#	109732
#	128782
#	147527
#	161311
#	170810
#
# Disc length: 2518 seconds
#
# Revision: 0
# Processed by: cddbd v1.5.2PL0 Copyright (c) Steve Scherf et al.
# Submitted via: CDex 1.51
#
DISCID=8d09d40c
DTITLE=Enya - Only Time - The Collection - Disc 1
DYEAR=2002
DGENRE=New Age
TTITLE0=Watermark
TTITLE1=Exile
TTITLE2=Aldebaran
TTITLE3=March Of The Celts
TTITLE4=Boadicea
TTITLE5=The Sun In The Stream
TTITLE6=On Your Shore
TTITLE7=Cursum Perficio
TTITLE8=Storms In Africa (Original Version)
TTITLE9=The Celts
TTITLE10=Miss Clare Remembers
TTITLE11=I Want Tomorrow
EXTD=YEAR: 2002
EXTT0=
EXTT1=
EXTT2=
EXTT3=
EXTT4=
EXTT5=
EXTT6=
EXTT7=
EXTT8=
EXTT9=
EXTT10=
EXTT11=
PLAYORDER=
